<svg width="20" height="20" fill="none" xmlns="http://www.w3.org/2000/svg"><g clip-path="url(#a)"><path d="M20 13.218H0v.4h20v-.4Z" fill="#C63A47"/><path d="M20 0H0v6.381h20V0Z" fill="#00A4D1"/><path d="M0 13.627V20h20v-6.38H0v.008Z" fill="#11AF4B"/><path d="M20 6.79H0v6.429h20v-6.43Z" fill="#fff"/><path d="M0 6.431v.358h20v-.408H0v.05Z" fill="#C63A47"/><path d="M8.908 5.31c-1.082 0-1.958-.922-1.958-2.059s.876-2.058 1.958-2.058c.17 0 .34.023.504.069A2.522 2.522 0 0 0 7.978.818C6.6.818 5.48 1.914 5.48 3.265c0 1.352 1.119 2.448 2.498 2.448A2.52 2.52 0 0 0 9.48 5.22c-.185.06-.378.09-.572.09Zm3.452-2.59.088.286h.286l-.231.178.088.287-.232-.178-.231.178.088-.287-.232-.178h.287l.088-.287Zm1 0 .088.286h.286l-.231.178.088.287-.232-.178-.231.178.088-.287-.232-.178h.287l.088-.287Zm1 0 .088.286h.286l-.231.178.088.287-.232-.178-.231.178.088-.287-.232-.178h.287l.088-.287Zm-2 1 .088.286h.286l-.231.178.088.287-.232-.178-.231.178.088-.287-.232-.178h.287l.088-.287Zm-1 0 .088.286h.286l-.231.178.088.287-.232-.178-.231.178.088-.287-.232-.178h.287l.088-.287Zm0 1 .088.286h.286l-.231.178.088.287-.232-.178-.231.178.088-.287-.232-.178h.287l.088-.287Zm-1 0 .088.286h.286l-.231.178.088.287-.232-.178-.231.178.088-.287-.232-.178h.287l.088-.287Zm3-1 .088.286h.286l-.231.178.088.287-.232-.178-.231.178.088-.287-.232-.178h.287l.088-.287Zm1 0 .088.286h.286l-.231.178.088.287-.232-.178-.231.178.088-.287-.232-.178h.287l.088-.287Zm-2 1 .088.286h.286l-.231.178.088.287-.232-.178-.231.178.088-.287-.232-.178h.287l.088-.287Zm1 0 .088.286h.286l-.231.178.088.287-.232-.178-.231.178.088-.287-.232-.178h.287l.088-.287Zm1 0 .088.286h.286l-.231.178.088.287-.232-.178-.231.178.088-.287-.232-.178h.287l.088-.287Z" fill="#fff"/></g><defs><clipPath id="a"><rect width="20" height="20" rx="10" fill="#fff"/></clipPath></defs></svg>