<svg width="71" height="12" xmlns="http://www.w3.org/2000/svg" fill="none"><path fill="#333" d="M.328 12V.8h2.144L7.24 8.704H6.104L10.792.8h2.128l.032 11.2H10.52l-.016-7.472h.448l-3.744 6.288H6.04L2.216 4.528h.544V12H.328zm13.49 0L18.808.8h2.56L26.377 12h-2.72l-4.096-9.888h1.024L16.473 12h-2.656zm2.495-2.4.688-1.968h5.76l.704 1.968h-7.152zM27.22 12V.8h4.848c1.003 0 1.867.165 2.592.496.726.32 1.286.784 1.68 1.392.395.608.592 1.333.592 2.176 0 .832-.197 1.552-.592 2.16-.394.597-.954 1.056-1.68 1.376-.725.32-1.59.48-2.592.48H28.66l1.152-1.136V12H27.22zm7.12 0-2.8-4.064h2.768L37.14 12h-2.8zm-4.528-3.968L28.66 6.816h3.264c.8 0 1.398-.17 1.792-.512.395-.352.592-.832.592-1.44 0-.619-.197-1.099-.592-1.44-.394-.341-.992-.512-1.792-.512H28.66l1.152-1.232v6.352zM38.665 12V.8h4.848c1.002 0 1.866.165 2.592.496.725.32 1.285.784 1.68 1.392.394.608.592 1.333.592 2.176 0 .832-.198 1.552-.592 2.16-.395.608-.955 1.077-1.68 1.408-.726.32-1.59.48-2.592.48h-3.408l1.152-1.168V12h-2.592zm2.592-3.968L40.105 6.8h3.264c.8 0 1.397-.17 1.792-.512.394-.341.592-.816.592-1.424 0-.619-.198-1.099-.592-1.44-.395-.341-.992-.512-1.792-.512h-3.264l1.152-1.232v6.352zM49.907 12V.8H52.5v9.088h5.616V12h-8.208zm7.927 0L62.826.8h2.56L70.394 12h-2.72l-4.096-9.888h1.024L60.49 12h-2.656zm2.496-2.4.688-1.968h5.76l.704 1.968H60.33z"/></svg>